<svg width="47" height="47" viewBox="0 0 47 47" fill="none" xmlns="http://www.w3.org/2000/svg">
<g clip-path="url(#clip0)">
<path d="M29.0078 23.8672C28.5011 23.8672 28.0898 24.2785 28.0898 24.7852C28.0898 25.2918 28.5011 25.7031 29.0078 25.7031C29.5145 25.7031 29.9258 25.2918 29.9258 24.7852C29.9258 24.2785 29.5145 23.8672 29.0078 23.8672Z" fill="#26643B"/>
<path d="M9.3793 33.9451L0.199609 45.5115C-0.0194846 45.7873 -0.0610801 46.1641 0.0920342 46.4811C0.245148 46.7985 0.566437 47 0.918565 47H46.0826C46.4348 47 46.756 46.7985 46.9092 46.4811C47.0626 46.1641 47.0207 45.7873 46.8016 45.5115L37.6219 33.9451C37.448 33.7257 37.183 33.5977 36.9029 33.5977H28.8617L35.7268 22.8302C37.3372 20.4158 38.1881 17.6003 38.1881 14.6875C38.1881 6.58894 31.5995 0 23.5006 0C15.4017 0 8.8131 6.58894 8.8131 14.6875C8.8131 17.6003 9.66401 20.4155 11.2744 22.8302L18.1394 33.5977H10.0983C9.8182 33.5977 9.55357 33.7257 9.3793 33.9451ZM5.95197 41.2168H11.5025L8.36989 45.1641H2.81905L5.95197 41.2168ZM19.3102 35.4336L21.8267 39.3809H15.3034L18.4363 35.4336H19.3102ZM27.6913 35.4336H28.5652L31.6978 39.3809H25.1748L27.6913 35.4336ZM33.155 41.2168L36.2876 45.1641H10.7136L13.8465 41.2168H33.155ZM38.6317 45.1641L35.4987 41.2168H41.0496L44.1821 45.1641H38.6317ZM39.5923 39.3809H34.0418L30.9089 35.4336H36.4597L39.5923 39.3809ZM12.807 21.819C11.3952 19.7055 10.649 17.2395 10.649 14.6875C10.649 7.60121 16.4143 1.83594 23.5006 1.83594C30.5869 1.83594 36.3522 7.60121 36.3522 14.6875C36.3522 17.2395 35.6059 19.7055 34.1946 21.819C34.1906 21.8243 34.1874 21.8297 34.1838 21.8351C33.581 22.7807 23.965 37.8633 23.5006 38.5913C22.3327 36.7593 14.0068 23.7004 12.8174 21.8351C12.8141 21.8297 12.8106 21.8243 12.807 21.819ZM16.0923 35.4336L12.9597 39.3809H7.40889L10.5418 35.4336H16.0923Z" fill="#26643B"/>
<path d="M23.5 23.8672C28.5395 23.8672 32.6797 19.7862 32.6797 14.6875C32.6797 9.62576 28.5617 5.50781 23.5 5.50781C18.4383 5.50781 14.3203 9.62576 14.3203 14.6875C14.3203 19.7876 18.4619 23.8672 23.5 23.8672ZM23.5 7.34375C27.5495 7.34375 30.8438 10.638 30.8438 14.6875C30.8438 18.7746 27.5229 22.0312 23.5 22.0312C19.476 22.0312 16.1562 18.7746 16.1562 14.6875C16.1562 10.638 19.4505 7.34375 23.5 7.34375Z" fill="#26643B"/>
<path d="M27.3666 26.9997C26.9327 26.738 26.3683 26.8778 26.1065 27.3121L22.7136 32.9411C22.4519 33.3753 22.5917 33.9394 23.0259 34.2011C23.462 34.464 24.0253 34.3212 24.286 33.8888L27.6789 28.2598C27.9407 27.8255 27.8008 27.2615 27.3666 26.9997Z" fill="#26643B"/>
</g>
<defs>
<clipPath id="clip0">
<rect width="47" height="47" fill="white"/>
</clipPath>
</defs>
</svg>
