<svg width="93" height="40" viewBox="0 0 93 40" fill="none" xmlns="http://www.w3.org/2000/svg">
<path d="M25.5577 17.14C24.6377 17.14 23.8243 16.98 23.1177 16.66C22.4243 16.34 21.8777 15.8933 21.4777 15.32C21.0777 14.7467 20.8643 14.1067 20.8377 13.4H22.3177C22.3843 14.08 22.6843 14.68 23.2177 15.2C23.751 15.7067 24.531 15.96 25.5577 15.96C26.5043 15.96 27.251 15.72 27.7977 15.24C28.3577 14.7467 28.6377 14.1267 28.6377 13.38C28.6377 12.78 28.4843 12.3 28.1777 11.94C27.871 11.5667 27.491 11.2933 27.0377 11.12C26.5843 10.9333 25.9577 10.7333 25.1577 10.52C24.2243 10.2667 23.4843 10.02 22.9377 9.78C22.391 9.54 21.9243 9.16667 21.5377 8.66C21.151 8.15333 20.9577 7.46667 20.9577 6.6C20.9577 5.88 21.1443 5.24 21.5177 4.68C21.891 4.10667 22.4177 3.66 23.0977 3.34C23.7777 3.02 24.5577 2.86 25.4377 2.86C26.731 2.86 27.771 3.18 28.5577 3.82C29.3577 4.44667 29.8177 5.26 29.9377 6.26H28.4177C28.3243 5.68667 28.011 5.18 27.4777 4.74C26.9443 4.28667 26.2243 4.06 25.3177 4.06C24.4777 4.06 23.7777 4.28667 23.2177 4.74C22.6577 5.18 22.3777 5.78667 22.3777 6.56C22.3777 7.14667 22.531 7.62 22.8377 7.98C23.1443 8.34 23.5243 8.61333 23.9777 8.8C24.4443 8.98667 25.071 9.18667 25.8577 9.4C26.7643 9.65333 27.4977 9.90667 28.0577 10.16C28.6177 10.4 29.091 10.7733 29.4777 11.28C29.8643 11.7867 30.0577 12.4667 30.0577 13.32C30.0577 13.9733 29.8843 14.5933 29.5377 15.18C29.191 15.7667 28.6777 16.24 27.9977 16.6C27.3177 16.96 26.5043 17.14 25.5577 17.14ZM37.963 5.88C38.7896 5.88 39.5296 6.05333 40.183 6.4C40.8496 6.74667 41.3696 7.28 41.743 8C42.1296 8.70667 42.323 9.57333 42.323 10.6V17H40.943V10.76C40.943 9.57333 40.643 8.66667 40.043 8.04C39.4563 7.41333 38.6496 7.1 37.623 7.1C36.5696 7.1 35.7296 7.43333 35.103 8.1C34.4763 8.76667 34.163 9.74667 34.163 11.04V17H32.763V2.2H34.163V7.94C34.5096 7.28667 35.0163 6.78 35.683 6.42C36.363 6.06 37.123 5.88 37.963 5.88ZM44.7792 11.52C44.7792 10.4 44.9992 9.42 45.4392 8.58C45.8925 7.72667 46.5125 7.07333 47.2992 6.62C48.0992 6.15333 48.9992 5.92 49.9992 5.92C51.0392 5.92 51.9325 6.16 52.6792 6.64C53.4392 7.12 53.9859 7.73333 54.3192 8.48V6.08H55.7192V17H54.3192V14.58C53.9725 15.3267 53.4192 15.9467 52.6592 16.44C51.9125 16.92 51.0192 17.16 49.9792 17.16C48.9925 17.16 48.0992 16.9267 47.2992 16.46C46.5125 15.9933 45.8925 15.3333 45.4392 14.48C44.9992 13.6267 44.7792 12.64 44.7792 11.52ZM54.3192 11.54C54.3192 10.66 54.1392 9.88667 53.7792 9.22C53.4192 8.55333 52.9259 8.04 52.2992 7.68C51.6859 7.32 51.0059 7.14 50.2592 7.14C49.4859 7.14 48.7925 7.31333 48.1792 7.66C47.5659 8.00667 47.0792 8.51333 46.7192 9.18C46.3725 9.83333 46.1992 10.6133 46.1992 11.52C46.1992 12.4133 46.3725 13.2 46.7192 13.88C47.0792 14.5467 47.5659 15.06 48.1792 15.42C48.7925 15.7667 49.4859 15.94 50.2592 15.94C51.0059 15.94 51.6859 15.76 52.2992 15.4C52.9259 15.04 53.4192 14.5267 53.7792 13.86C54.1392 13.1933 54.3192 12.42 54.3192 11.54ZM59.6153 4.02C59.3353 4.02 59.0953 3.92 58.8953 3.72C58.6953 3.52 58.5953 3.27333 58.5953 2.98C58.5953 2.68667 58.6953 2.44667 58.8953 2.26C59.0953 2.06 59.3353 1.96 59.6153 1.96C59.8953 1.96 60.1353 2.06 60.3353 2.26C60.5353 2.44667 60.6353 2.68667 60.6353 2.98C60.6353 3.27333 60.5353 3.52 60.3353 3.72C60.1353 3.92 59.8953 4.02 59.6153 4.02ZM60.3153 6.08V17H58.9153V6.08H60.3153ZM67.7856 7.26H65.2456V17H63.8456V7.26H62.3256V6.08H63.8456V5.32C63.8456 4.13333 64.1456 3.26 64.7456 2.7C65.359 2.14 66.3456 1.86 67.7056 1.86V3.06C66.799 3.06 66.159 3.23333 65.7856 3.58C65.4256 3.92667 65.2456 4.50667 65.2456 5.32V6.08H67.7856V7.26ZM70.1695 3.02H71.7895L70.0295 7.34H69.0095L70.1695 3.02ZM77.6948 17.16C76.4415 17.16 75.4148 16.8733 74.6148 16.3C73.8282 15.7133 73.3882 14.92 73.2948 13.92H74.7348C74.8015 14.5333 75.0882 15.0333 75.5948 15.42C76.1148 15.7933 76.8082 15.98 77.6748 15.98C78.4348 15.98 79.0282 15.8 79.4548 15.44C79.8948 15.08 80.1148 14.6333 80.1148 14.1C80.1148 13.7267 79.9948 13.42 79.7548 13.18C79.5148 12.94 79.2082 12.7533 78.8348 12.62C78.4748 12.4733 77.9815 12.32 77.3548 12.16C76.5415 11.9467 75.8815 11.7333 75.3748 11.52C74.8682 11.3067 74.4348 10.9933 74.0748 10.58C73.7282 10.1533 73.5548 9.58667 73.5548 8.88C73.5548 8.34667 73.7148 7.85333 74.0348 7.4C74.3548 6.94667 74.8082 6.58667 75.3948 6.32C75.9815 6.05333 76.6482 5.92 77.3948 5.92C78.5682 5.92 79.5148 6.22 80.2348 6.82C80.9548 7.40667 81.3415 8.22 81.3948 9.26H79.9948C79.9548 8.62 79.7015 8.10667 79.2348 7.72C78.7815 7.32 78.1548 7.12 77.3548 7.12C76.6482 7.12 76.0748 7.28667 75.6348 7.62C75.1948 7.95333 74.9748 8.36667 74.9748 8.86C74.9748 9.28667 75.1015 9.64 75.3548 9.92C75.6215 10.1867 75.9482 10.4 76.3348 10.56C76.7215 10.7067 77.2415 10.8733 77.8948 11.06C78.6815 11.2733 79.3082 11.48 79.7748 11.68C80.2415 11.88 80.6415 12.1733 80.9748 12.56C81.3082 12.9467 81.4815 13.46 81.4948 14.1C81.4948 14.6867 81.3348 15.2133 81.0148 15.68C80.6948 16.1333 80.2482 16.4933 79.6748 16.76C79.1015 17.0267 78.4415 17.16 77.6948 17.16ZM20.6777 30C20.6777 28.6267 20.9777 27.4 21.5777 26.32C22.1777 25.2267 22.9977 24.38 24.0377 23.78C25.0777 23.1667 26.2377 22.86 27.5177 22.86C29.0777 22.86 30.411 23.2333 31.5177 23.98C32.6377 24.7133 33.451 25.7533 33.9577 27.1H32.3177C31.9177 26.1533 31.3043 25.4133 30.4777 24.88C29.6643 24.3467 28.6777 24.08 27.5177 24.08C26.491 24.08 25.5643 24.32 24.7377 24.8C23.9243 25.28 23.2843 25.9733 22.8177 26.88C22.351 27.7733 22.1177 28.8133 22.1177 30C22.1177 31.1867 22.351 32.2267 22.8177 33.12C23.2843 34.0133 23.9243 34.7 24.7377 35.18C25.5643 35.66 26.491 35.9 27.5177 35.9C28.6777 35.9 29.6643 35.64 30.4777 35.12C31.3043 34.5867 31.9177 33.8533 32.3177 32.92H33.9577C33.451 34.2533 32.6377 35.2867 31.5177 36.02C30.3977 36.7533 29.0643 37.12 27.5177 37.12C26.2377 37.12 25.0777 36.82 24.0377 36.22C22.9977 35.6067 22.1777 34.76 21.5777 33.68C20.9777 32.6 20.6777 31.3733 20.6777 30ZM46.2073 26.08V37H44.8073V35.08C44.4873 35.76 43.994 36.28 43.3273 36.64C42.6607 37 41.914 37.18 41.0873 37.18C39.7807 37.18 38.714 36.78 37.8873 35.98C37.0607 35.1667 36.6473 33.9933 36.6473 32.46V26.08H38.0273V32.3C38.0273 33.4867 38.3207 34.3933 38.9073 35.02C39.5073 35.6467 40.3207 35.96 41.3473 35.96C42.4007 35.96 43.2407 35.6267 43.8673 34.96C44.494 34.2933 44.8073 33.3133 44.8073 32.02V26.08H46.2073ZM50.1036 24.02C49.8236 24.02 49.5836 23.92 49.3836 23.72C49.1836 23.52 49.0836 23.2733 49.0836 22.98C49.0836 22.6867 49.1836 22.4467 49.3836 22.26C49.5836 22.06 49.8236 21.96 50.1036 21.96C50.3836 21.96 50.6236 22.06 50.8236 22.26C51.0236 22.4467 51.1236 22.6867 51.1236 22.98C51.1236 23.2733 51.0236 23.52 50.8236 23.72C50.6236 23.92 50.3836 24.02 50.1036 24.02ZM50.8036 26.08V37H49.4036V26.08H50.8036ZM57.7339 37.16C56.4806 37.16 55.4539 36.8733 54.6539 36.3C53.8672 35.7133 53.4272 34.92 53.3339 33.92H54.7739C54.8406 34.5333 55.1272 35.0333 55.6339 35.42C56.1539 35.7933 56.8472 35.98 57.7139 35.98C58.4739 35.98 59.0672 35.8 59.4939 35.44C59.9339 35.08 60.1539 34.6333 60.1539 34.1C60.1539 33.7267 60.0339 33.42 59.7939 33.18C59.5539 32.94 59.2472 32.7533 58.8739 32.62C58.5139 32.4733 58.0206 32.32 57.3939 32.16C56.5806 31.9467 55.9206 31.7333 55.4139 31.52C54.9072 31.3067 54.4739 30.9933 54.1139 30.58C53.7672 30.1533 53.5939 29.5867 53.5939 28.88C53.5939 28.3467 53.7539 27.8533 54.0739 27.4C54.3939 26.9467 54.8472 26.5867 55.4339 26.32C56.0206 26.0533 56.6872 25.92 57.4339 25.92C58.6072 25.92 59.5539 26.22 60.2739 26.82C60.9939 27.4067 61.3806 28.22 61.4339 29.26H60.0339C59.9939 28.62 59.7406 28.1067 59.2739 27.72C58.8206 27.32 58.1939 27.12 57.3939 27.12C56.6872 27.12 56.1139 27.2867 55.6739 27.62C55.2339 27.9533 55.0139 28.3667 55.0139 28.86C55.0139 29.2867 55.1406 29.64 55.3939 29.92C55.6606 30.1867 55.9872 30.4 56.3739 30.56C56.7606 30.7067 57.2806 30.8733 57.9339 31.06C58.7206 31.2733 59.3472 31.48 59.8139 31.68C60.2806 31.88 60.6806 32.1733 61.0139 32.56C61.3472 32.9467 61.5206 33.46 61.5339 34.1C61.5339 34.6867 61.3739 35.2133 61.0539 35.68C60.7339 36.1333 60.2872 36.4933 59.7139 36.76C59.1406 37.0267 58.4806 37.16 57.7339 37.16ZM64.8692 24.02C64.5892 24.02 64.3492 23.92 64.1492 23.72C63.9492 23.52 63.8492 23.2733 63.8492 22.98C63.8492 22.6867 63.9492 22.4467 64.1492 22.26C64.3492 22.06 64.5892 21.96 64.8692 21.96C65.1492 21.96 65.3892 22.06 65.5892 22.26C65.7892 22.4467 65.8892 22.6867 65.8892 22.98C65.8892 23.2733 65.7892 23.52 65.5892 23.72C65.3892 23.92 65.1492 24.02 64.8692 24.02ZM65.5692 26.08V37H64.1692V26.08H65.5692ZM73.8595 25.88C75.1662 25.88 76.2329 26.2867 77.0595 27.1C77.8862 27.9 78.2995 29.0667 78.2995 30.6V37H76.9195V30.76C76.9195 29.5733 76.6195 28.6667 76.0195 28.04C75.4329 27.4133 74.6262 27.1 73.5995 27.1C72.5462 27.1 71.7062 27.4333 71.0795 28.1C70.4529 28.7667 70.1395 29.7467 70.1395 31.04V37H68.7395V26.08H70.1395V27.94C70.4862 27.2733 70.9862 26.7667 71.6395 26.42C72.2929 26.06 73.0329 25.88 73.8595 25.88ZM91.2758 30.98C91.2758 31.46 91.2624 31.8267 91.2358 32.08H82.1758C82.2158 32.9067 82.4158 33.6133 82.7758 34.2C83.1358 34.7867 83.6091 35.2333 84.1958 35.54C84.7824 35.8333 85.4224 35.98 86.1158 35.98C87.0224 35.98 87.7824 35.76 88.3958 35.32C89.0224 34.88 89.4358 34.2867 89.6358 33.54H91.1158C90.8491 34.6067 90.2758 35.48 89.3958 36.16C88.5291 36.8267 87.4358 37.16 86.1158 37.16C85.0891 37.16 84.1691 36.9333 83.3558 36.48C82.5424 36.0133 81.9024 35.36 81.4358 34.52C80.9824 33.6667 80.7558 32.6733 80.7558 31.54C80.7558 30.4067 80.9824 29.4133 81.4358 28.56C81.8891 27.7067 82.5224 27.0533 83.3358 26.6C84.1491 26.1467 85.0758 25.92 86.1158 25.92C87.1558 25.92 88.0624 26.1467 88.8358 26.6C89.6224 27.0533 90.2224 27.6667 90.6358 28.44C91.0624 29.2 91.2758 30.0467 91.2758 30.98ZM89.8558 30.94C89.8691 30.1267 89.7024 29.4333 89.3558 28.86C89.0224 28.2867 88.5624 27.8533 87.9758 27.56C87.3891 27.2667 86.7491 27.12 86.0558 27.12C85.0158 27.12 84.1291 27.4533 83.3958 28.12C82.6624 28.7867 82.2558 29.7267 82.1758 30.94H89.8558Z" fill="#3B413A"/>
<path d="M10.1857 28.7032C10.1962 33.1966 10.3709 35.7896 10.7058 36.4105C11.3018 37.5161 13.4346 37.908 14.6526 38.0432L14.7016 38.0486C15.1923 38.1032 16.3414 38.2306 16.3414 38.6026C16.3414 38.6882 16.3321 38.7349 16.3263 38.756C16.2874 38.7726 16.1808 38.7985 15.8938 38.7985C15.8101 38.7985 15.7228 38.7967 15.6326 38.7949C15.5293 38.7929 15.4224 38.7908 15.313 38.7908H9.7574H4.12301C4.01364 38.7908 3.90675 38.793 3.80329 38.7949C3.71321 38.7968 3.62594 38.7985 3.54219 38.7985C3.25547 38.7985 3.14889 38.7727 3.10998 38.756C3.10396 38.7349 3.09483 38.6882 3.09483 38.6024C3.09483 38.2304 4.24381 38.103 4.73455 38.0486L4.78322 38.0432C6.00132 37.908 8.13397 37.5161 8.73025 36.4103C8.85405 36.1807 9.23075 35.482 9.29789 28.6777C9.31366 27.0679 9.30578 25.3715 9.2762 24.0236C9.22722 21.7957 9.15458 21.6377 9.09055 21.4985C9.00494 21.3126 8.84087 21.1835 8.65169 21.1531C6.44754 20.7972 4.13059 19.4976 2.45382 17.6766C0.650232 15.7177 -0.206315 13.4297 0.0421188 11.2338C0.295534 8.99352 2.49896 2.15834 3.25536 1.20166H16.1811C16.9375 2.15845 19.1408 8.99374 19.3943 11.2338C19.9202 15.8819 15.3439 20.2888 10.9008 21.1239C10.7105 21.1597 10.5525 21.2899 10.4671 21.4809C10.1739 22.1374 10.1851 28.4353 10.1857 28.7032Z" fill="#3B413A"/>
<path d="M16.1293 16.646C16.8959 15.6644 17.5072 14.7958 17.6154 13.6414C17.6243 13.5459 17.6392 13.2044 17.3397 13.2044C13.0706 11.1766 5.8059 15.8826 2.08717 13.206C1.75934 13.206 1.81061 13.5398 1.82005 13.6414C1.92964 14.8255 2.5583 15.7221 3.35227 16.7263C4.68182 18.4077 6.42708 19.5006 8.36868 19.65C8.69775 19.6753 9.23996 19.6909 9.78363 19.6909C10.3013 19.6909 10.7725 19.6764 11.0441 19.652C13.0273 19.474 14.7984 18.3502 16.1293 16.646Z" fill="#D6E5D8"/>
</svg>
