<svg width="47" height="47" viewBox="0 0 47 47" fill="none" xmlns="http://www.w3.org/2000/svg">
<g clip-path="url(#clip0)">
<path d="M37.1448 29.1149C36.1826 28.113 35.022 27.5773 33.792 27.5773C32.5718 27.5773 31.4013 28.1031 30.3994 29.105L27.2648 32.2296C27.0069 32.0908 26.749 31.9618 26.501 31.8329C26.1439 31.6543 25.8066 31.4857 25.519 31.3071C22.5827 29.4422 19.9143 27.0119 17.3551 23.8674C16.1151 22.3001 15.2818 20.9807 14.6767 19.6416C15.4902 18.8976 16.2441 18.1239 16.9781 17.3799C17.2559 17.1021 17.5336 16.8145 17.8114 16.5367C19.8945 14.4536 19.8945 11.7554 17.8114 9.67232L15.1033 6.96425C14.7958 6.65674 14.4784 6.33931 14.1808 6.02188C13.5856 5.40686 12.9606 4.772 12.3159 4.17682C11.3537 3.22453 10.203 2.71863 8.99278 2.71863C7.78258 2.71863 6.61205 3.22453 5.62009 4.17682C5.61017 4.18674 5.61017 4.18674 5.60025 4.19666L2.22756 7.59911C0.957841 8.86882 0.233705 10.4163 0.07499 12.2118C-0.163082 15.1083 0.69001 17.8064 1.34471 19.5721C2.9517 23.907 5.35226 27.9245 8.93326 32.2296C13.2781 37.4176 18.5057 41.5145 24.4774 44.4011C26.7589 45.4823 29.8043 46.762 33.2067 46.9802C33.415 46.9901 33.6332 47 33.8316 47C36.1231 47 38.0475 46.1767 39.5553 44.54C39.5652 44.5201 39.585 44.5102 39.595 44.4904C40.1108 43.8654 40.706 43.3 41.3309 42.6949C41.7575 42.2882 42.1939 41.8616 42.6205 41.4153C43.6025 40.3935 44.1183 39.2032 44.1183 37.9831C44.1183 36.753 43.5926 35.5726 42.5907 34.5806L37.1448 29.1149ZM40.696 39.5603C40.6861 39.5603 40.6861 39.5702 40.696 39.5603C40.3092 39.9769 39.9124 40.3539 39.4858 40.7705C38.8411 41.3855 38.1864 42.0303 37.5714 42.7544C36.5695 43.8257 35.389 44.3316 33.8416 44.3316C33.6928 44.3316 33.534 44.3316 33.3853 44.3217C30.4391 44.1333 27.7013 42.9826 25.6479 42.0005C20.0334 39.2825 15.1033 35.4238 11.0065 30.5334C7.62386 26.4564 5.36218 22.6869 3.86431 18.6397C2.94178 16.1697 2.60451 14.2453 2.7533 12.43C2.8525 11.2694 3.29888 10.3072 4.12222 9.48384L7.50482 6.10124C7.99089 5.64493 8.50671 5.39694 9.01262 5.39694C9.63756 5.39694 10.1435 5.77389 10.4609 6.09132C10.4708 6.10124 10.4807 6.11116 10.4906 6.12108C11.0957 6.6865 11.6711 7.27176 12.2762 7.8967C12.5837 8.21413 12.9011 8.53156 13.2186 8.8589L15.9266 11.567C16.9781 12.6185 16.9781 13.5906 15.9266 14.6421C15.639 14.9297 15.3612 15.2174 15.0735 15.4952C14.2403 16.3483 13.4467 17.1418 12.5837 17.9156C12.5639 17.9354 12.544 17.9453 12.5341 17.9652C11.681 18.8183 11.8397 19.6515 12.0183 20.2169C12.0282 20.2467 12.0381 20.2764 12.048 20.3062C12.7523 22.0124 13.7443 23.6194 15.2521 25.5339L15.262 25.5438C17.9998 28.9165 20.8865 31.5452 24.0707 33.5589C24.4774 33.8168 24.894 34.0251 25.2908 34.2235C25.6479 34.4021 25.9852 34.5707 26.2728 34.7492C26.3125 34.7691 26.3522 34.7988 26.3919 34.8187C26.7292 34.9873 27.0466 35.0667 27.3739 35.0667C28.1973 35.0667 28.7131 34.5508 28.8817 34.3822L32.2742 30.9897C32.6115 30.6524 33.1472 30.2457 33.7721 30.2457C34.3871 30.2457 34.893 30.6326 35.2006 30.9699C35.2105 30.9798 35.2105 30.9798 35.2204 30.9897L40.6861 36.4554C41.7079 37.4672 41.7079 38.5088 40.696 39.5603Z" fill="#26643B"/>
<path d="M25.3999 11.1801C27.9989 11.6166 30.3598 12.8466 32.2445 14.7314C34.1292 16.6161 35.3494 18.977 35.7957 21.5759C35.9049 22.2306 36.4703 22.6869 37.1151 22.6869C37.1944 22.6869 37.2639 22.677 37.3432 22.6671C38.0773 22.5481 38.5633 21.8537 38.4443 21.1196C37.9086 17.9751 36.4207 15.1083 34.1491 12.8367C31.8775 10.5651 29.0107 9.07715 25.8662 8.54149C25.1321 8.42245 24.4476 8.90852 24.3187 9.63265C24.1897 10.3568 24.6659 11.0611 25.3999 11.1801Z" fill="#26643B"/>
<path d="M46.9454 20.7327C46.0626 15.5546 43.6224 10.8428 39.8727 7.09314C36.1231 3.34351 31.4112 0.903267 26.2332 0.0204161C25.509 -0.10854 24.8246 0.387444 24.6956 1.11158C24.5766 1.84564 25.0627 2.53009 25.7967 2.65905C30.4193 3.4427 34.6351 5.63495 37.988 8.97788C41.3408 12.3307 43.5232 16.5466 44.3068 21.1692C44.4159 21.8239 44.9813 22.2802 45.6261 22.2802C45.7055 22.2802 45.7749 22.2702 45.8543 22.2603C46.5784 22.1512 47.0744 21.4568 46.9454 20.7327Z" fill="#26643B"/>
</g>
<defs>
<clipPath id="clip0">
<rect width="47" height="47" fill="white"/>
</clipPath>
</defs>
</svg>
