<svg width="94" height="94" viewBox="0 0 94 94" fill="none" xmlns="http://www.w3.org/2000/svg">
<g clip-path="url(#clip0)">
<circle cx="47.5" cy="47.5" r="61.5" fill="#26643B" fill-opacity="0.2"/>
<circle cx="47.5" cy="47.5" r="46.5" fill="#26643B" fill-opacity="0.4"/>
<circle cx="47.5" cy="47.5" r="34.5" fill="#26643B" fill-opacity="0.8"/>
<path d="M63.964 44.4906L40.6197 31.0126C40.1792 30.7585 39.6796 30.6247 39.1711 30.6248C38.6625 30.6249 38.163 30.7588 37.7225 31.0131C37.2821 31.2674 36.9164 31.6331 36.6621 32.0735C36.4078 32.5139 36.2738 33.0134 36.2737 33.522V60.478C36.2718 60.9873 36.4045 61.4881 36.6583 61.9297C36.9121 62.3712 37.2781 62.7379 37.7192 62.9926C38.1603 63.2473 38.6609 63.3809 39.1702 63.38C39.6795 63.3791 40.1796 63.2436 40.6197 62.9873L63.964 49.5093C64.4045 49.255 64.7702 48.8892 65.0244 48.4487C65.2787 48.0082 65.4125 47.5086 65.4125 47C65.4125 46.4914 65.2787 45.9917 65.0244 45.5513C64.7702 45.1108 64.4045 44.745 63.964 44.4906ZM62.6789 47.2812L39.3346 60.7614C39.2855 60.7919 39.2289 60.808 39.1712 60.808C39.1134 60.808 39.0568 60.7919 39.0078 60.7614C38.9571 60.7338 38.915 60.6927 38.8861 60.6427C38.8572 60.5927 38.8426 60.5357 38.844 60.478V33.522C38.8426 33.4643 38.8572 33.4073 38.8861 33.3573C38.915 33.3072 38.9571 33.2662 39.0078 33.2385C39.0576 33.209 39.1143 33.1931 39.1723 33.1923C39.2295 33.1929 39.2856 33.2088 39.3346 33.2385L62.6796 46.7172C62.7292 46.746 62.7703 46.7872 62.7989 46.8368C62.8275 46.8864 62.8425 46.9427 62.8425 47C62.8425 47.0572 62.8275 47.1135 62.7989 47.1631C62.7703 47.2127 62.7292 47.254 62.6796 47.2827L62.6789 47.2812Z" fill="white"/>
</g>
<defs>
<clipPath id="clip0">
<rect width="94" height="94" rx="47" fill="white"/>
</clipPath>
</defs>
</svg>
