<svg width="65" height="65" viewBox="0 0 65 65" fill="none" xmlns="http://www.w3.org/2000/svg">
<path d="M59.8081 43.2829C58.3382 44.3068 56.649 44.9723 54.8757 45.2263C53.1024 45.4802 51.2942 45.3155 49.596 44.7454C49.4422 44.6906 49.2774 44.6737 49.1156 44.6962C48.9538 44.7186 48.7998 44.7797 48.6667 44.8744L44.0964 48.1152L45.2725 49.7717L49.4193 46.8264C51.3574 47.3926 53.3974 47.5192 55.3907 47.1972C57.384 46.8751 59.2803 46.1125 60.9416 44.9648C61.5401 44.5604 62.1074 44.1116 62.6387 43.6221L61.2615 42.1292C60.8069 42.55 60.3211 42.9356 59.8081 43.2829Z" fill="#26643B"/>
<path d="M49.5808 28.1257C48.1271 29.0545 46.9627 30.3718 46.2194 31.9285C45.476 33.4851 45.1836 35.2189 45.3751 36.9332L32.5 45.1862L19.6229 36.9383C19.8186 35.2234 19.5275 33.488 18.783 31.9308C18.0385 30.3736 16.8707 29.0574 15.4131 28.1328C13.4784 26.7993 11.1256 26.2125 8.79125 26.4814C7.69012 26.5892 6.62636 26.9388 5.67594 27.5052C4.72552 28.0716 3.91188 28.8409 3.29311 29.7581C2.67434 30.6753 2.2657 31.7178 2.09638 32.8111C1.92706 33.9045 2.00123 35.0217 2.3136 36.0831C2.93934 38.3472 4.3651 40.3074 6.32633 41.6C7.7306 42.6066 9.39018 43.1971 11.1147 43.3036C12.8392 43.4101 14.5588 43.0284 16.0763 42.2023L26.0711 49.2984L16.5598 55.3973C16.1102 55.6829 15.7225 56.0559 15.4197 56.4942C15.1169 56.9324 14.9052 57.4269 14.797 57.9485C14.6889 58.4701 14.6865 59.008 14.7901 59.5305C14.8936 60.053 15.101 60.5494 15.3999 60.9903C15.6977 61.4302 16.0804 61.8062 16.5255 62.0962C16.9706 62.3862 17.4691 62.5843 17.9919 62.6789C18.5146 62.7735 19.051 62.7627 19.5695 62.6472C20.088 62.5316 20.5782 62.3136 21.0113 62.0059L32.5 53.8586L43.9888 62.012C44.4223 62.3292 44.9154 62.5556 45.4386 62.6776C45.9617 62.7997 46.5041 62.8149 47.0333 62.7223C47.5624 62.6297 48.0674 62.4313 48.518 62.1389C48.9687 61.8464 49.3556 61.4661 49.6558 61.0205C49.9559 60.575 50.163 60.0735 50.2646 59.546C50.3663 59.0185 50.3605 58.476 50.2474 57.9508C50.1344 57.4256 49.9165 56.9287 49.6069 56.4897C49.2972 56.0508 48.9021 55.6789 48.4453 55.3962L38.9228 49.3025L48.9247 42.2033C50.442 43.0297 52.1615 43.4118 53.886 43.3056C55.6105 43.1995 57.2702 42.6094 58.6747 41.6031C62.8489 38.7857 64.2119 33.4699 61.7104 29.7527C59.2089 26.0356 53.7641 25.3084 49.5808 28.1257ZM19.8352 60.3535C19.4012 60.6456 18.8703 60.7565 18.3557 60.6626C17.8411 60.5687 17.3836 60.2773 17.0808 59.8508C16.9342 59.6346 16.8326 59.3911 16.7818 59.1349C16.7311 58.8787 16.7324 58.6149 16.7855 58.3591C16.8386 58.1034 16.9426 57.8609 17.0912 57.6461C17.2398 57.4313 17.43 57.2485 17.6505 57.1086L27.8566 50.5639L30.7399 52.6094L19.8352 60.3535ZM48.2117 58.3598C48.2913 58.7452 48.253 59.1456 48.102 59.5089C47.9509 59.8722 47.6939 60.1816 47.3646 60.3969C47.0352 60.6122 46.6487 60.7234 46.2553 60.716C45.8619 60.7087 45.4798 60.583 45.1588 60.3555L16.6816 40.1446C16.508 40.0215 16.3001 39.956 16.0872 39.9575C15.8743 39.9589 15.6673 40.0272 15.4954 40.1527C14.2922 40.938 12.8776 41.3362 11.4415 41.2939C10.0054 41.2516 8.61665 40.7708 7.4618 39.9161C5.90799 38.8969 4.7764 37.3489 4.2768 35.5591C4.03774 34.7772 3.9765 33.9518 4.09758 33.1432C4.21866 32.3347 4.51898 31.5634 4.97658 30.8859C5.43417 30.2083 6.03746 29.6417 6.74229 29.2274C7.44713 28.8131 8.23568 28.5616 9.05024 28.4913C10.8967 28.2841 12.7557 28.7532 14.2827 29.8117C15.5069 30.563 16.4718 31.6709 17.0481 32.9865C17.6243 34.3022 17.7842 35.7627 17.5063 37.1719C17.4541 37.3784 17.4682 37.5962 17.5466 37.7943C17.625 37.9925 17.7637 38.1609 17.9431 38.2759L47.3495 57.1076C47.57 57.2476 47.7601 57.4306 47.9082 57.6458C48.0564 57.861 48.1596 58.1038 48.2117 58.3598ZM57.5352 39.9141C56.3799 40.7685 54.9909 41.249 53.5546 41.2909C52.1184 41.3329 50.7037 40.9343 49.5006 40.1487C49.3286 40.0232 49.1216 39.9549 48.9087 39.9534C48.6959 39.952 48.4879 40.0174 48.3143 40.1406L37.0784 48.1173L34.385 46.3907L47.0539 38.2657C47.2329 38.1509 47.3714 37.9828 47.4497 37.7851C47.5281 37.5873 47.5424 37.37 47.4906 37.1638C47.2183 35.7543 47.3812 34.2954 47.9577 32.9807C48.5342 31.6661 49.497 30.558 50.7183 29.8035C53.9683 27.6128 58.1466 28.0963 60.0245 30.8781C61.9024 33.6599 60.7841 37.7234 57.5352 39.9141Z" fill="#26643B"/>
<path d="M13.129 3.89284L12.0047 2.20081C9.55134 3.82642 7.71146 6.22513 6.77726 9.01598C5.84305 11.8068 5.86808 14.8298 6.84836 17.6048L8.76282 16.9263C7.9339 14.5779 7.91343 12.0198 8.70468 9.65845C9.49592 7.29705 11.0535 5.26774 13.13 3.89284H13.129Z" fill="#26643B"/>
<path d="M10.918 20.5847C10.4289 20.0299 9.99557 19.4285 9.62407 18.7891L7.86602 19.8047C8.30465 20.5607 8.81662 21.2717 9.39454 21.9273L10.918 20.5847Z" fill="#26643B"/>
<path d="M43.6516 36.7657L46.543 22.3092C48.8939 22.1047 51.0745 20.9989 52.6287 19.2234C54.1829 17.4478 54.9902 15.1399 54.8816 12.7827C54.7731 10.4255 53.7572 8.20159 52.0465 6.57629C50.3358 4.95099 48.0628 4.05025 45.7031 4.06252C43.6495 4.05525 41.6547 4.74848 40.0481 6.02776C39.2113 4.79653 38.0861 3.78869 36.7704 3.09211C35.4548 2.39554 33.9887 2.03137 32.5 2.03137C31.0113 2.03137 29.5452 2.39554 28.2296 3.09211C26.9139 3.78869 25.7887 4.79653 24.9519 6.02776C23.3453 4.74848 21.3505 4.05525 19.2969 4.06252C16.9453 4.06231 14.684 4.96843 12.9833 6.5925C11.2826 8.21657 10.2732 10.4336 10.1651 12.7827C10.0569 15.1319 10.8583 17.4323 12.4026 19.2058C13.9469 20.9792 16.1153 22.0893 18.457 22.3052L21.3484 36.7657L23.3391 36.3675L22.7703 33.5156H42.2297L41.6609 36.3594L43.6516 36.7657ZM38.7491 31.4844L39.5992 25.5349L37.5883 25.2464L36.6976 31.4844H33.5156V20.3125H31.4844V31.4844H28.3024L27.4117 25.2464L25.4008 25.5349L26.2509 31.4844H22.3641L20.2922 21.125C20.2454 20.8956 20.1207 20.6894 19.9393 20.5414C19.758 20.3933 19.531 20.3125 19.2969 20.3125C17.4114 20.3125 15.6031 19.5635 14.2698 18.2302C12.9365 16.897 12.1875 15.0887 12.1875 13.2031C12.1875 11.3176 12.9365 9.50933 14.2698 8.17606C15.6031 6.8428 17.4114 6.09377 19.2969 6.09377C20.2647 6.09129 21.2227 6.28844 22.111 6.67288C22.9992 7.05733 23.7986 7.62082 24.4593 8.32815C24.5722 8.44752 24.7123 8.53773 24.8678 8.59103C25.0232 8.64433 25.1892 8.65913 25.3516 8.63416C25.514 8.60919 25.6679 8.5452 25.8001 8.44768C25.9323 8.35016 26.0389 8.22201 26.1107 8.07424C26.6909 6.87269 27.5981 5.85908 28.7283 5.14978C29.8584 4.44048 31.1657 4.06423 32.5 4.06423C33.8343 4.06423 35.1416 4.44048 36.2717 5.14978C37.4019 5.85908 38.3091 6.87269 38.8893 8.07424C38.9611 8.22201 39.0677 8.35016 39.1999 8.44768C39.3321 8.5452 39.486 8.60919 39.6484 8.63416C39.8108 8.65913 39.9768 8.64433 40.1322 8.59103C40.2877 8.53773 40.4278 8.44752 40.5407 8.32815C41.2014 7.62082 42.0008 7.05733 42.889 6.67288C43.7773 6.28844 44.7353 6.09129 45.7031 6.09377C47.5886 6.09377 49.3969 6.8428 50.7302 8.17606C52.0635 9.50933 52.8125 11.3176 52.8125 13.2031C52.8125 15.0887 52.0635 16.897 50.7302 18.2302C49.3969 19.5635 47.5886 20.3125 45.7031 20.3125C45.469 20.3125 45.242 20.3933 45.0607 20.5414C44.8793 20.6894 44.7546 20.8956 44.7078 21.125L42.6359 31.4844H38.7491Z" fill="#26643B"/>
</svg>
