<svg width="65" height="65" viewBox="0 0 65 65" fill="none" xmlns="http://www.w3.org/2000/svg">
<path d="M46.0287 21.9072L45.3332 19.6181C44.4497 17.0178 41.6256 15.6261 39.0253 16.5096C37.5626 17.0066 36.4138 18.1553 35.9168 19.6181L35.2213 21.9072C34.6361 23.8377 34.5132 25.8788 34.8628 27.8655C35.1815 29.5382 36.2435 30.9752 37.7488 31.7709L36.9698 49.1833C36.8656 50.1552 37.1808 51.1255 37.8365 51.8505C39.2466 53.3929 41.6402 53.5001 43.1826 52.09C43.266 52.0138 43.3459 51.9339 43.4222 51.8505C44.0632 51.146 44.3779 50.2042 44.2888 49.2559L43.5056 31.7687C45.0089 30.9726 46.069 29.5365 46.3873 27.8655C46.7368 25.8788 46.6139 23.8377 46.0287 21.9072ZM44.2531 27.4885C44.0185 28.6902 43.1622 29.6761 42.0052 30.0766C41.566 30.2416 41.2831 30.6706 41.3043 31.1393L42.1276 49.4271C42.1655 49.7858 42.0472 50.1434 41.8026 50.4086C41.1503 51.0544 40.0997 51.0544 39.4474 50.4086C39.1907 50.122 39.0741 49.7364 39.1289 49.3556L39.9458 31.1393C39.9669 30.6706 39.684 30.2416 39.2448 30.0766C38.0878 29.6761 37.2315 28.6902 36.9969 27.4885C36.7071 25.8391 36.8092 24.1446 37.2948 22.542L37.9903 20.2518C38.5285 18.7968 40.1443 18.0535 41.5995 18.5916C42.3688 18.8761 42.9752 19.4827 43.2597 20.2518L43.9552 22.542C44.4402 24.1448 44.5423 25.8391 44.2531 27.4885Z" fill="#26643B"/>
<path d="M29.25 16.25C28.6517 16.25 28.1667 16.7351 28.1667 17.3333V26.6348L25.2341 29.5674C25.0171 29.7835 24.9018 30.0816 24.9167 30.3875L25.8646 49.3458C25.8872 49.7547 25.7388 50.1546 25.4551 50.4498C24.8621 51.048 23.8963 51.0524 23.2979 50.4592C23.2947 50.4561 23.2915 50.4529 23.2884 50.4498C23.0046 50.1546 22.8563 49.7547 22.8789 49.3458L23.8333 30.3875C23.8485 30.0817 23.7335 29.7838 23.517 29.5674L20.5833 26.6348V17.3333C20.5833 16.7351 20.0983 16.25 19.5 16.25C18.9017 16.25 18.4167 16.7351 18.4167 17.3333V27.0833C18.4167 27.3707 18.531 27.6461 18.7341 27.8493L21.6439 30.7602L20.7198 49.2408C20.6215 51.2594 22.1783 52.9757 24.1969 53.074C26.2156 53.1723 27.9319 51.6156 28.0302 49.5969C28.036 49.4783 28.036 49.3595 28.0302 49.2409L27.1061 30.7603L30.0159 27.8494C30.219 27.6463 30.3333 27.3708 30.3333 27.0835V17.3335C30.3333 16.7351 29.8483 16.25 29.25 16.25Z" fill="#26643B"/>
<path d="M22.75 16.25C22.1517 16.25 21.6667 16.7351 21.6667 17.3333V26C21.6667 26.5983 22.1517 27.0833 22.75 27.0833C23.3483 27.0833 23.8333 26.5983 23.8333 26V17.3333C23.8333 16.7351 23.3483 16.25 22.75 16.25Z" fill="#26643B"/>
<path d="M26 16.25C25.4017 16.25 24.9167 16.7351 24.9167 17.3333V26C24.9167 26.5983 25.4017 27.0833 26 27.0833C26.5983 27.0833 27.0833 26.5983 27.0833 26V17.3333C27.0833 16.7351 26.5983 16.25 26 16.25Z" fill="#26643B"/>
<path d="M32.5 0C14.5508 0 0 14.5508 0 32.5C0 50.4492 14.5508 65 32.5 65C50.4492 65 65 50.4492 65 32.5C64.9797 14.5592 50.4408 0.0203125 32.5 0ZM32.5 62.8333C15.7473 62.8333 2.16667 49.2527 2.16667 32.5C2.16667 15.7473 15.7473 2.16667 32.5 2.16667C49.2527 2.16667 62.8333 15.7473 62.8333 32.5C62.8142 49.2447 49.2447 62.8142 32.5 62.8333Z" fill="#26643B"/>
<path d="M36.0166 52.8358C35.9586 52.2404 35.4287 51.8048 34.8331 51.8629C34.8192 51.8642 34.8052 51.8658 34.7913 51.8677L34.7956 51.8667C33.2704 52.0438 31.7296 52.0438 30.2044 51.8667C29.6099 51.7969 29.0717 52.2223 29.0019 52.8167C28.9322 53.4112 29.3575 53.9495 29.952 54.0192C31.6435 54.2168 33.3522 54.2168 35.0437 54.0192C35.6391 53.9613 36.0747 53.4314 36.0166 52.8358Z" fill="#26643B"/>
<path d="M49.075 18.5403C48.6905 18.0819 48.0072 18.0219 47.5489 18.4065C47.5474 18.4077 47.5459 18.409 47.5442 18.4103C47.0869 18.7959 47.0287 19.4792 47.4142 19.9367C53.9461 27.6906 53.4464 39.1562 46.2648 46.3126C45.841 46.735 45.8398 47.4211 46.2621 47.845C46.6845 48.2688 47.3706 48.27 47.7945 47.8477C55.7755 39.897 56.3321 27.1567 49.075 18.5403Z" fill="#26643B"/>
<path d="M25.2419 14.3196C25.2411 14.3196 25.2402 14.3195 25.2394 14.3195C25.238 14.3195 25.2367 14.3196 25.2352 14.3196H25.2419Z" fill="#26643B"/>
<path d="M37.6101 11.439C33.3763 10.4243 28.936 10.697 24.8582 12.2222C24.2981 12.4328 24.0149 13.0576 24.2255 13.6176C24.3842 14.0397 24.7878 14.319 25.2386 14.3194C25.3682 14.3188 25.4965 14.2951 25.6176 14.2492C29.2898 12.8759 33.2884 12.6307 37.1009 13.545C37.6825 13.6855 38.2679 13.3282 38.4085 12.7466C38.5491 12.165 38.1917 11.5795 37.6101 11.439Z" fill="#26643B"/>
<path d="M18.6864 46.2583C15.0344 42.6125 12.9875 37.6605 13 32.5C12.9893 28.3771 14.2953 24.3585 16.7278 21.0297C17.0873 20.5514 16.991 19.8723 16.5127 19.5127C16.0344 19.1532 15.3553 19.2495 14.9958 19.7278C14.9894 19.7363 14.9832 19.7448 14.9771 19.7535C8.71365 28.3644 9.6353 40.25 17.1513 47.7923C17.5749 48.2162 18.262 48.2165 18.6859 47.7929C19.1097 47.3693 19.11 46.6822 18.6864 46.2583Z" fill="#26643B"/>
</svg>
