<svg width="65" height="65" viewBox="0 0 65 65" fill="none" xmlns="http://www.w3.org/2000/svg">
<path d="M6.09375 34.5312H11.4922C11.2898 35.0942 11.2589 35.7046 11.4034 36.2852C11.5479 36.8657 11.8612 37.3904 12.3038 37.7929L20.6418 45.4355L20.6426 45.4347C20.6496 45.4411 20.6553 45.4482 20.663 45.4543L33.8399 56.875H33.5156C33.2463 56.875 32.9879 56.982 32.7975 57.1725C32.607 57.3629 32.5 57.6213 32.5 57.8906V61.9531C32.5 62.2225 32.607 62.4808 32.7975 62.6713C32.9879 62.8617 33.2463 62.9688 33.5156 62.9688H45.7031C45.9725 62.9688 46.2308 62.8617 46.4213 62.6713C46.6117 62.4808 46.7188 62.2225 46.7188 61.9531V57.8906C46.7188 57.6213 46.6117 57.3629 46.4213 57.1725C46.2308 56.982 45.9725 56.875 45.7031 56.875V55.2643L46.247 54.7205C46.72 54.25 47.0951 53.6905 47.3504 53.0741C47.6057 52.4577 47.7362 51.7969 47.7344 51.1297V44.9075L51.416 36.8079C51.7436 36.0907 51.779 35.2741 51.5145 34.5312H58.9062C59.714 34.5303 60.4885 34.209 61.0597 33.6378C61.6309 33.0666 61.9522 32.2922 61.9531 31.4844V29.4531C61.9531 29.1838 61.8461 28.9254 61.6557 28.735C61.4652 28.5445 61.2069 28.4375 60.9375 28.4375H56.875V27.4219C56.875 15.6614 47.3073 6.09375 35.5469 6.09375V4.0625H36.5625C36.8319 4.0625 37.0902 3.9555 37.2807 3.76503C37.4711 3.57456 37.5781 3.31624 37.5781 3.04688C37.5781 2.77751 37.4711 2.51919 37.2807 2.32872C37.0902 2.13825 36.8319 2.03125 36.5625 2.03125H28.4375C28.1681 2.03125 27.9098 2.13825 27.7193 2.32872C27.5289 2.51919 27.4219 2.77751 27.4219 3.04688C27.4219 3.31624 27.5289 3.57456 27.7193 3.76503C27.9098 3.9555 28.1681 4.0625 28.4375 4.0625H29.4531V6.09375C17.6927 6.09375 8.125 15.6614 8.125 27.4219V28.4375H4.0625C3.79314 28.4375 3.53481 28.5445 3.34434 28.735C3.15388 28.9254 3.04688 29.1838 3.04688 29.4531V31.4844C3.04782 32.2922 3.36913 33.0666 3.94032 33.6378C4.51152 34.209 5.28596 34.5303 6.09375 34.5312ZM13.416 35.1787C13.4875 34.9862 13.6169 34.8205 13.7864 34.7046C13.9559 34.5886 14.1572 34.528 14.3626 34.5312H14.9424C15.1373 34.5315 15.3281 34.5877 15.492 34.6933C15.6559 34.7988 15.7861 34.9492 15.867 35.1265L16.6305 36.8061V36.8076L18.3418 40.5724L13.6763 36.2959C13.5227 36.1595 13.4152 35.9788 13.3686 35.7787C13.3219 35.5786 13.3385 35.369 13.416 35.1787ZM44.6875 60.9375H34.5312V58.9062H44.6875V60.9375ZM49.4962 34.997C49.5897 35.1393 49.6453 35.3031 49.6577 35.4729C49.6701 35.6427 49.6388 35.8128 49.5669 35.9671L45.7942 44.2672C45.7342 44.3992 45.7032 44.5425 45.7031 44.6875V51.1297C45.7042 51.53 45.6259 51.9265 45.4727 52.2964C45.3195 52.6662 45.0946 53.002 44.8108 53.2843L43.9693 54.1256C43.875 54.2199 43.8002 54.3319 43.7492 54.4551C43.6981 54.5783 43.6719 54.7104 43.6719 54.8438V56.875H36.9413L22.1609 44.0654L18.4793 35.9672C18.4089 35.8125 18.3786 35.6425 18.3909 35.473C18.4033 35.3034 18.458 35.1397 18.5501 34.9968C18.6422 34.8539 18.7687 34.7364 18.9179 34.655C19.0672 34.5737 19.2345 34.5311 19.4045 34.5312H20.0727C20.2614 34.5306 20.4466 34.5828 20.6072 34.6821C20.7678 34.7813 20.8973 34.9235 20.9812 35.0926L24.4823 42.0949C24.5935 42.3173 24.7825 42.4912 25.0134 42.5836L35.1697 46.6461C35.3679 46.7254 35.5861 46.7402 35.7932 46.6884L39.8557 45.6728C39.9919 45.6387 40.1195 45.5768 40.2306 45.4909C40.3417 45.4051 40.4337 45.2971 40.501 45.1739L46.0173 35.0605C46.1047 34.9003 46.2337 34.7666 46.3906 34.6735C46.5476 34.5803 46.7267 34.5312 46.9092 34.5312H48.6426C48.8128 34.5297 48.9806 34.5717 49.13 34.6532C49.2794 34.7347 49.4054 34.8531 49.4962 34.997ZM22.9714 34.5312H43.9923L38.9311 43.8103L35.6191 44.6381L26.127 40.8408L22.9714 34.5312ZM31.4844 4.0625H33.5156V6.09375H31.4844V4.0625ZM10.1562 27.4219C10.1562 16.7816 18.8128 8.125 29.4531 8.125H35.5469C46.1872 8.125 54.8438 16.7816 54.8438 27.4219V28.4375H10.1562V27.4219ZM5.07812 30.4688H59.9219V31.4844C59.9216 31.7536 59.8145 32.0118 59.6241 32.2022C59.4337 32.3926 59.1755 32.4997 58.9062 32.5H6.09375C5.82448 32.4997 5.56633 32.3926 5.37593 32.2022C5.18553 32.0118 5.07843 31.7536 5.07812 31.4844V30.4688Z" fill="#26643B"/>
</svg>
