<svg width="65" height="65" viewBox="0 0 65 65" fill="none" xmlns="http://www.w3.org/2000/svg">
<path d="M54.5909 48.8607C54.0767 48.6486 53.5208 48.5572 52.9659 48.5936L51.7796 41.4741C51.7403 41.2374 51.6184 41.0224 51.4357 40.8669C51.253 40.7115 51.0211 40.6258 50.7812 40.625H46.2109L44.6875 38.5937H53.8281C54.5499 38.5956 55.2488 38.3404 55.7996 37.8739C56.3504 37.4074 56.7172 36.7601 56.8343 36.0478C56.9513 35.3356 56.811 34.6049 56.4385 33.9867C56.066 33.3684 55.4855 32.903 54.8011 32.6737C54.6055 28.5093 52.9924 24.5368 50.2293 21.415C47.4663 18.2932 43.7192 16.2096 39.6094 15.5096V14.2187C39.6048 13.4121 39.2824 12.6397 38.712 12.0693C38.1415 11.4989 37.3692 11.1764 36.5625 11.1719C35.7544 11.1719 34.9794 11.4929 34.408 12.0643C33.8366 12.6357 33.5156 13.4107 33.5156 14.2187V15.5096C29.4058 16.2096 25.6587 18.2932 22.8956 21.415C20.1326 24.5368 18.5195 28.5093 18.3239 32.6737C17.6395 32.903 17.059 33.3684 16.6865 33.9867C16.314 34.6049 16.1737 35.3356 16.2907 36.0478C16.4078 36.7601 16.7746 37.4074 17.3254 37.8739C17.8762 38.3404 18.5751 38.5956 19.2969 38.5937H28.4375L26.9141 40.625H22.3437C22.1033 40.6251 21.8708 40.7105 21.6874 40.866C21.504 41.0214 21.3818 41.2369 21.3423 41.4741L20.8061 44.6875H18.2812C18.2812 44.4181 18.1742 44.1598 17.9838 43.9693C17.7933 43.7789 17.535 43.6719 17.2656 43.6719H3.04688V45.7031H16.25V57.8906H3.04688V59.9219H17.2656C17.535 59.9219 17.7933 59.8149 17.9838 59.6244C18.1742 59.4339 18.2812 59.1756 18.2812 58.9062V58.5193L25.8639 61.6677C29.9978 63.3545 34.6187 63.4054 38.7887 61.8099L54.4771 55.8279C54.9373 55.6532 55.3579 55.3883 55.7142 55.0487C56.0706 54.7091 56.3554 54.3017 56.552 53.8505C56.7558 53.393 56.8661 52.8993 56.8764 52.3986C56.8867 51.8978 56.7968 51.4001 56.6119 50.9346C56.4318 50.4708 56.1599 50.0481 55.8127 49.6918C55.4654 49.3354 55.0498 49.0528 54.5909 48.8607ZM35.5469 14.2187C35.5469 13.9494 35.6539 13.6911 35.8443 13.5006C36.0348 13.3101 36.2931 13.2031 36.5625 13.2031C36.6978 13.2029 36.8318 13.2304 36.9562 13.2838C37.0805 13.3373 37.1926 13.4156 37.2856 13.5139C37.3794 13.6056 37.4537 13.7153 37.5039 13.8364C37.5542 13.9576 37.5794 14.0876 37.5781 14.2187V15.2862C37.2399 15.2669 36.9058 15.2344 36.5625 15.2344C36.2192 15.2344 35.8851 15.2669 35.5469 15.2862V14.2187ZM36.5625 17.2656C40.6925 17.2724 44.6651 18.8508 47.6736 21.6803C50.6821 24.5097 52.5009 28.3782 52.7607 32.5H20.3623C20.6221 28.3778 22.4412 24.5091 25.4501 21.6796C28.459 18.8501 32.4321 17.2719 36.5625 17.2656ZM18.2812 35.5469C18.2812 35.2775 18.3883 35.0192 18.5787 34.8287C18.7692 34.6383 19.0275 34.5312 19.2969 34.5312H53.8281C54.0975 34.5312 54.3558 34.6383 54.5463 34.8287C54.7367 35.0192 54.8437 35.2775 54.8437 35.5469C54.8437 35.8162 54.7367 36.0746 54.5463 36.265C54.3558 36.4555 54.0975 36.5625 53.8281 36.5625H19.2969C19.0275 36.5625 18.7692 36.4555 18.5787 36.265C18.3883 36.0746 18.2812 35.8162 18.2812 35.5469ZM30.9766 38.5937H42.1484L43.6719 40.625H29.4531L30.9766 38.5937ZM49.921 42.6562L51.0077 49.1786L45.1577 51.6618C45.177 51.5383 45.1895 51.4139 45.1953 51.2891C45.1953 50.3463 44.8208 49.4422 44.1542 48.7755C43.4875 48.1089 42.5834 47.7344 41.6406 47.7344H33.7624C32.9658 47.7331 32.1803 47.5479 31.4671 47.193C28.7728 45.8538 25.8496 45.0361 22.8516 44.783L23.204 42.6562H49.921ZM54.6944 53.0309C54.6058 53.236 54.4771 53.4212 54.3157 53.5758C54.1544 53.7303 53.9637 53.851 53.755 53.9307L38.0656 59.9127C34.3789 61.3246 30.293 61.2803 26.6378 59.7888L18.2812 56.3184V46.7187H20.8559C24.2238 46.723 27.545 47.5072 30.5591 49.01C31.5542 49.5058 32.6506 49.7644 33.7624 49.7656H41.6406C42.0138 49.7678 42.3732 49.9069 42.6507 50.1565C42.9281 50.4061 43.1043 50.7489 43.1458 51.1198C43.1872 51.4907 43.0911 51.8639 42.8756 52.1686C42.6601 52.4733 42.3403 52.6884 41.9768 52.7729C41.8437 52.7851 41.7127 52.8125 41.5777 52.8125H29.4531V54.8437H41.5777H41.6406C41.6609 54.8437 41.6802 54.8377 41.7016 54.8377C42.5075 54.8244 43.3033 54.6561 44.0456 54.342L52.5362 50.7366C52.7367 50.6506 52.9524 50.6063 53.1705 50.6063C53.3886 50.6063 53.6043 50.6506 53.8048 50.7366C54.013 50.8244 54.2013 50.9535 54.3584 51.116C54.5154 51.2785 54.638 51.471 54.7188 51.6821C54.8048 51.8973 54.8468 52.1274 54.8424 52.359C54.8381 52.5907 54.7874 52.8191 54.6934 53.0309H54.6944Z" fill="#26643B"/>
<path d="M12.1875 53.8281H14.2188V55.8594H12.1875V53.8281Z" fill="#26643B"/>
<path d="M25.3124 28.8204C26.2362 26.5988 27.7982 24.7012 29.8008 23.3675C31.8034 22.0339 34.1565 21.3241 36.5625 21.3281V19.2969C33.7557 19.2923 31.0106 20.1202 28.6744 21.6758C26.3382 23.2314 24.5157 25.4449 23.4376 28.0363L25.3124 28.8204Z" fill="#26643B"/>
<path d="M35.5469 5.07812H37.5781V9.14062H35.5469V5.07812Z" fill="#26643B"/>
<path d="M27.4219 13.2031H31.4844V15.2344H27.4219V13.2031Z" fill="#26643B"/>
<path d="M41.6406 13.2031H45.7031V15.2344H41.6406V13.2031Z" fill="#26643B"/>
<path d="M39.0609 10.2826L41.9336 7.40997L43.3699 8.84628L40.4973 11.7189L39.0609 10.2826Z" fill="#26643B"/>
<path d="M29.7481 8.84814L31.1844 7.41183L34.057 10.2845L32.6207 11.7208L29.7481 8.84814Z" fill="#26643B"/>
</svg>
